<?xml version="1.0" standalone="no"?>
<!DOCTYPE svg PUBLIC "-//W3C//DTD SVG 20010904//EN"
 "http://www.w3.org/TR/2001/REC-SVG-20010904/DTD/svg10.dtd">
<svg version="1.0" xmlns="http://www.w3.org/2000/svg"
 width="700.000000pt" height="700.000000pt" viewBox="0 0 700.000000 700.000000"
 preserveAspectRatio="xMidYMid meet">
<metadata>
Created by potrace 1.14, written by Peter Selinger 2001-2017
</metadata>
<g transform="translate(0.000000,700.000000) scale(0.100000,-0.100000)"
fill="#000000" stroke="none">
<path d="M3500 6769 c0 -5 5 -7 10 -4 6 3 10 8 10 11 0 2 -4 4 -10 4 -5 0 -10
-5 -10 -11z"/>
<path d="M205 6340 c-3 -5 -1 -10 4 -10 6 0 11 5 11 10 0 6 -2 10 -4 10 -3 0
-8 -4 -11 -10z"/>
<path d="M2555 6340 c-3 -5 -1 -10 4 -10 6 0 11 5 11 10 0 6 -2 10 -4 10 -3 0
-8 -4 -11 -10z"/>
<path d="M3500 6340 c0 -5 5 -10 11 -10 5 0 7 5 4 10 -3 6 -8 10 -11 10 -2 0
-4 -4 -4 -10z"/>
<path d="M2205 5009 c-258 -25 -535 -133 -740 -287 -298 -223 -497 -538 -576
-912 -32 -151 -32 -419 0 -570 132 -620 601 -1078 1216 -1185 247 -44 582 -8
796 83 l47 20 308 -83 309 -83 -162 157 c-88 86 -258 250 -377 365 l-216 209
-80 -37 c-244 -111 -541 -107 -780 13 -115 58 -165 94 -260 191 -120 122 -194
255 -237 426 -26 104 -23 333 6 439 120 447 553 743 1001 685 316 -41 576
-225 719 -507 17 -34 31 -67 31 -73 0 -7 -159 -10 -485 -10 l-485 0 2 -272 3
-273 467 -3 468 -2 5 -23 c3 -12 9 -43 15 -70 20 -96 74 -245 122 -342 218
-435 617 -730 1098 -812 166 -28 464 -17 593 23 16 5 17 28 17 306 0 282 -1
300 -17 293 -401 -168 -878 -24 -1119 337 -104 156 -144 286 -151 488 -4 132
-2 154 21 245 86 331 305 565 623 662 80 24 104 27 253 27 196 1 273 -16 435
-93 276 -132 453 -376 495 -683 9 -58 12 -309 11 -825 l-1 -743 280 0 280 0 0
816 c0 777 -1 821 -20 914 -87 426 -353 792 -734 1007 -297 168 -688 231
-1012 163 -303 -64 -545 -192 -759 -402 -60 -59 -110 -108 -110 -108 0 0 -50
49 -110 108 -212 205 -463 340 -740 397 -44 9 -82 19 -85 23 -8 10 -262 11
-365 1z"/>
<path d="M205 2360 c-3 -5 -1 -10 4 -10 6 0 11 5 11 10 0 6 -2 10 -4 10 -3 0
-8 -4 -11 -10z"/>
<path d="M6780 2360 c0 -5 5 -10 11 -10 5 0 7 5 4 10 -3 6 -8 10 -11 10 -2 0
-4 -4 -4 -10z"/>
<path d="M3500 139 c0 -5 5 -7 10 -4 6 3 10 8 10 11 0 2 -4 4 -10 4 -5 0 -10
-5 -10 -11z"/>
</g>
</svg>
