<svg width="261" height="150" viewBox="0 0 261 150" fill="none" xmlns="http://www.w3.org/2000/svg">
<path fill-rule="evenodd" clip-rule="evenodd" d="M68.2207 57.5004V84.464H114.483C114.794 86.5662 115.199 88.6414 115.686 90.6827C117.967 100.171 122.112 109.111 127.879 116.982C133.646 124.854 140.921 131.501 149.28 136.536C157.639 141.571 166.916 144.894 176.571 146.311C186.226 147.729 196.066 147.212 205.519 144.792V115.186C197.323 118.781 188.248 119.878 179.432 118.339C170.615 116.801 162.448 112.696 155.953 106.537C149.459 100.379 144.925 92.4416 142.921 83.719C140.916 74.9963 141.53 65.8761 144.684 57.5004C162.049 11.4683 230.976 22.662 232.659 71.9657C233.335 91.3384 232.659 111.847 232.659 131.375V144.407H260.096V63.5907C258.158 49.4141 252.128 36.1104 242.743 25.3096C233.358 14.5087 221.027 6.67976 207.26 2.78183C193.492 -1.11611 178.887 -0.913728 165.233 3.36416C151.579 7.64205 139.47 15.8097 130.388 26.8664C121.7 16.3045 110.238 8.37532 97.2904 3.97042C84.3431 -0.434487 70.4237 -1.14052 57.0971 1.93169C43.7705 5.0039 31.5651 11.7325 21.8529 21.3612C12.1408 30.9898 5.30697 43.1367 2.1198 56.4363C-1.06736 69.7359 -0.48155 83.6608 3.81139 96.6457C8.10433 109.631 15.9342 121.161 26.4207 129.939C36.9073 138.718 49.6348 144.398 63.1723 146.34C76.7098 148.282 90.5207 146.41 103.052 140.933L133.396 149.146L96.0901 113.043C66.274 130.097 28.1099 108.737 28.1099 73.5474C28.1103 62.9046 31.8446 52.5991 38.662 44.4264C45.4795 36.2538 54.9481 30.7318 65.4183 28.8226C75.8886 26.9133 86.6968 28.7378 95.9601 33.9782C105.223 39.2186 112.355 47.5427 116.112 57.5004H68.2207Z" fill="black"/>
</svg>
